<svg width="155" height="48" viewBox="0 0 155 48" fill="none" xmlns="http://www.w3.org/2000/svg">
<path d="M62.4714 7.49667C67.7634 7.49667 72.0535 11.7867 72.0535 17.0787C72.0535 17.6687 71.9974 18.2457 71.8953 18.8062H68.6755V18.8053H59.1726V15.6637H68.7537C68.1086 12.7877 65.542 10.6383 62.4714 10.6383C58.9145 10.6383 56.031 13.5218 56.031 17.0787C56.031 20.6356 58.9145 23.5191 62.4714 23.5191C64.8667 23.5191 66.9546 22.2104 68.0642 20.2701L70.8396 21.7447C69.2011 24.6769 66.069 26.6607 62.4714 26.6607C57.1794 26.6607 52.8894 22.3707 52.8894 17.0787C52.8894 11.7867 57.1794 7.49667 62.4714 7.49667Z" fill="white"/>
<path d="M103.939 7.49667C109.231 7.49667 113.521 11.7867 113.521 17.0787C113.521 17.6687 113.465 18.2457 113.363 18.8062H110.143V18.8053H100.643V15.6637H110.221C109.576 12.7877 107.01 10.6383 103.939 10.6383C100.382 10.6383 97.4985 13.5218 97.4985 17.0787C97.4985 20.6356 100.382 23.5191 103.939 23.5191C106.334 23.5191 108.422 22.2104 109.532 20.2701L112.307 21.7447C110.669 24.6769 107.537 26.6607 103.939 26.6607C98.647 26.6607 94.3569 22.3707 94.3569 17.0787C94.3569 11.7867 98.647 7.49667 103.939 7.49667Z" fill="white"/>
<path d="M118.238 9.98232C119.939 8.43854 122.198 7.49794 124.676 7.49794C129.915 7.49796 134.169 11.7028 134.254 16.9218H134.264V26.6601H131.122V16.9218H131.112C131.028 13.438 128.18 10.6396 124.676 10.6395C121.156 10.6395 118.298 13.463 118.238 16.9686V17.1913C118.24 17.2533 118.24 17.3153 118.243 17.3769V24.1776C118.241 24.1761 118.24 24.1743 118.238 24.1727V26.6601H115.097V17.1923C115.096 17.1549 115.094 17.1175 115.094 17.08C115.094 17.0419 115.096 17.0037 115.097 16.9657V7.49599H118.238V9.98232Z" fill="white"/>
<path d="M92.7935 17.0413C92.7935 17.0539 92.7944 17.0669 92.7944 17.0794C92.7944 17.0918 92.7935 17.1042 92.7935 17.1165V26.6595H89.6519V24.1741C87.9506 25.7191 85.6916 26.6614 83.2124 26.6614C77.9206 26.6614 73.6306 22.3712 73.6304 17.0794C73.6304 11.7875 77.9204 7.49743 83.2124 7.49739C85.6915 7.4974 87.9506 8.43874 89.6519 9.98372V1.84016H92.7935V17.0413ZM83.2124 10.639C82.4342 10.639 81.6881 10.7767 80.9976 11.0296C80.8005 11.1018 80.6079 11.1834 80.4204 11.2738C79.1063 11.9069 78.0399 12.9733 77.4067 14.2874C77.3165 14.4748 77.2347 14.6676 77.1626 14.8646C76.9098 15.555 76.772 16.3014 76.772 17.0794C76.772 17.3424 76.7892 17.602 76.8198 17.8568C76.8271 17.9171 76.8343 17.9776 76.8433 18.0374C76.8504 18.0854 76.8595 18.1334 76.8677 18.181C76.877 18.2353 76.8853 18.2902 76.896 18.3441C76.9053 18.3905 76.917 18.4367 76.9272 18.4827C76.9396 18.5385 76.9525 18.5945 76.9663 18.6497C76.9695 18.6625 76.9718 18.676 76.9751 18.6888L77.0337 18.8997C77.0376 18.913 77.0424 18.9265 77.0464 18.9398C77.0626 18.9937 77.0796 19.0476 77.0972 19.1009C77.1105 19.1413 77.1241 19.182 77.1382 19.222C77.1582 19.2789 77.1791 19.3358 77.2007 19.3919C77.2161 19.4321 77.2323 19.4723 77.2485 19.512C77.2708 19.5667 77.2941 19.6212 77.3179 19.6751C77.3329 19.7093 77.3481 19.7438 77.3638 19.7777C77.3921 19.8389 77.4215 19.9001 77.4517 19.9603C77.4649 19.9867 77.4791 20.0131 77.4927 20.0394C77.5217 20.0953 77.551 20.1514 77.5815 20.2064C77.6056 20.2496 77.6307 20.2926 77.6558 20.3353C77.6801 20.3767 77.7047 20.4184 77.73 20.4593C77.7574 20.5037 77.7865 20.5475 77.8149 20.5911C77.8403 20.6301 77.8649 20.67 77.8911 20.7083C77.9213 20.7526 77.9536 20.7958 77.9849 20.8392C78.0142 20.8799 78.0434 20.9212 78.0737 20.9613C78.0951 20.9895 78.1174 21.0174 78.1392 21.0452C78.2397 21.1737 78.3447 21.2989 78.4546 21.4193C78.521 21.492 78.5891 21.5635 78.6587 21.6331C78.7614 21.7358 78.8686 21.8344 78.978 21.93C79.0185 21.9653 79.0588 22.0012 79.1001 22.0355C79.1385 22.0674 79.1781 22.0982 79.2173 22.1292C79.2545 22.1587 79.2917 22.1885 79.3296 22.2171C79.3687 22.2467 79.4089 22.2753 79.4487 22.304C79.4931 22.3361 79.5373 22.3688 79.5825 22.3997C79.619 22.4246 79.6569 22.4478 79.6938 22.472C79.7395 22.5018 79.7851 22.5322 79.8315 22.5609C79.8717 22.5857 79.9129 22.6092 79.9536 22.6331C79.997 22.6587 80.0404 22.6848 80.0845 22.7093C80.1395 22.7399 80.1955 22.7691 80.2515 22.7982C80.2778 22.8118 80.3041 22.8259 80.3306 22.8392C80.3909 22.8694 80.4518 22.8987 80.5132 22.9271C80.5471 22.9428 80.5815 22.9579 80.6157 22.973C80.6697 22.9968 80.7241 23.02 80.7788 23.0423C80.8186 23.0586 80.8587 23.0747 80.8989 23.0902C80.9551 23.1118 81.0119 23.1326 81.0688 23.1527C81.1157 23.1692 81.1631 23.185 81.2104 23.2005C81.2497 23.2133 81.289 23.2265 81.3286 23.2386C81.3967 23.2594 81.4656 23.2786 81.5347 23.2972C81.5678 23.3061 81.601 23.3152 81.6343 23.3236C81.6918 23.3381 81.75 23.3507 81.8081 23.3636C81.8543 23.3739 81.9003 23.3856 81.9468 23.3948C82.0008 23.4056 82.0554 23.4138 82.1099 23.4232C82.1576 23.4314 82.2053 23.4404 82.2534 23.4476C82.3133 23.4565 82.3736 23.4637 82.4341 23.471C82.4776 23.4763 82.5211 23.4823 82.5649 23.4866C82.6697 23.4971 82.7752 23.5057 82.8813 23.5111L83.2124 23.5198C83.4313 23.5198 83.6476 23.508 83.8608 23.4866C83.8906 23.4837 83.9201 23.4793 83.9497 23.4759C84.0292 23.4668 84.1084 23.4576 84.187 23.4456C84.2089 23.4423 84.2306 23.4375 84.2524 23.4339C84.332 23.421 84.4112 23.4077 84.4897 23.3919C84.528 23.3842 84.566 23.3749 84.604 23.3665C84.6727 23.3514 84.7412 23.336 84.8091 23.3187C84.8352 23.312 84.8612 23.3042 84.8872 23.2972C84.9605 23.2775 85.0337 23.2579 85.106 23.2357C85.1417 23.2247 85.177 23.2121 85.2124 23.2005C85.2734 23.1806 85.3348 23.1616 85.395 23.14C85.4389 23.1241 85.4824 23.1069 85.5259 23.0902C85.5795 23.0695 85.6331 23.0487 85.686 23.0267C85.7326 23.0073 85.7787 22.9866 85.8247 22.9661C85.8692 22.9464 85.9136 22.9263 85.9575 22.9056C86.0054 22.883 86.0528 22.859 86.1001 22.8353C86.1468 22.8118 86.1937 22.7885 86.2397 22.764C86.2873 22.7386 86.3345 22.7124 86.3813 22.6859C86.4221 22.6628 86.4623 22.6385 86.5024 22.6146C86.5504 22.586 86.5979 22.5564 86.645 22.5267C86.6815 22.5037 86.7184 22.4811 86.7544 22.4573C86.8011 22.4265 86.8472 22.3946 86.8931 22.3626C86.9323 22.3353 86.9717 22.3078 87.0103 22.2796C87.0548 22.247 87.0984 22.2127 87.1421 22.179C87.1775 22.1517 87.2128 22.124 87.2476 22.096C87.2929 22.0595 87.338 22.0224 87.3823 21.9847C87.4141 21.9577 87.4458 21.9303 87.4771 21.9027C87.5172 21.8671 87.5569 21.8308 87.5962 21.7943C87.6383 21.7551 87.6802 21.7154 87.7212 21.6751C87.7504 21.6465 87.7795 21.6174 87.8081 21.5882C87.8477 21.5478 87.8868 21.5066 87.9253 21.4652C87.9566 21.4315 87.9884 21.3979 88.019 21.3636C88.0577 21.3203 88.0958 21.2761 88.1333 21.2318C88.1619 21.1979 88.1904 21.1636 88.2183 21.1292C88.2504 21.0895 88.2817 21.0486 88.313 21.0081C88.3461 20.9652 88.3796 20.922 88.4116 20.8782C88.4377 20.8426 88.4634 20.8061 88.4888 20.7698C88.5215 20.7231 88.5539 20.6758 88.5854 20.6282C88.6132 20.5863 88.6407 20.5439 88.6675 20.5013C88.695 20.4575 88.722 20.413 88.7485 20.3685C88.7716 20.3297 88.7946 20.2906 88.8169 20.2513C88.8463 20.1995 88.8749 20.1468 88.9028 20.0941C88.9205 20.0608 88.9385 20.0271 88.9556 19.9935C88.9828 19.9399 89.0099 19.8858 89.0356 19.8314C89.0568 19.7866 89.077 19.7409 89.0972 19.6956C89.1183 19.6481 89.1396 19.6002 89.1597 19.5521C89.1762 19.5124 89.1918 19.472 89.2075 19.432C89.2312 19.3715 89.2549 19.3106 89.2769 19.2493C89.2877 19.2192 89.2968 19.1879 89.3071 19.1575C89.3284 19.0951 89.3502 19.0323 89.3696 18.9691C89.385 18.9188 89.3984 18.8675 89.4126 18.8167C89.4266 18.7665 89.4417 18.7161 89.4546 18.6654C89.4668 18.6173 89.4777 18.5684 89.4888 18.5198C89.5008 18.4671 89.5132 18.4139 89.5239 18.3607C89.5863 18.0515 89.6276 17.734 89.644 17.4105L89.6519 17.1156V17.0423C89.6506 16.8364 89.6397 16.6329 89.6196 16.432C89.6162 16.3971 89.611 16.3621 89.6069 16.3275C89.5863 16.1499 89.5597 15.974 89.5249 15.8011C89.5127 15.7406 89.4987 15.6803 89.4849 15.6204C89.4741 15.5742 89.4634 15.5276 89.4517 15.4818C89.445 15.4557 89.4372 15.4296 89.4302 15.4036C89.4105 15.3304 89.3908 15.257 89.3687 15.1849C89.3577 15.1493 89.3451 15.1138 89.3335 15.0784C89.3136 15.0175 89.2946 14.956 89.2729 14.8958C89.2572 14.852 89.2399 14.8084 89.2231 14.765C89.2025 14.7114 89.1817 14.6576 89.1597 14.6048C89.1403 14.5583 89.1195 14.5121 89.0991 14.4661C89.0795 14.422 89.0591 14.3779 89.0386 14.3343C89.0131 14.2802 88.9864 14.2264 88.9595 14.1732C88.9407 14.1361 88.9223 14.0985 88.9028 14.0618C88.8758 14.0109 88.8472 13.9605 88.8188 13.9105C88.7957 13.8695 88.7716 13.8288 88.7476 13.7884C88.719 13.7405 88.6894 13.6929 88.6597 13.6458C88.6367 13.6094 88.614 13.5724 88.5903 13.5364C88.5595 13.4898 88.5276 13.4436 88.4956 13.3978C88.4683 13.3586 88.4408 13.3191 88.4126 13.2806C88.38 13.236 88.3457 13.1924 88.312 13.1488C88.2847 13.1134 88.257 13.078 88.229 13.0433C88.1925 12.998 88.1554 12.9528 88.1177 12.9085C88.0907 12.8768 88.0633 12.845 88.0356 12.8138C88.0001 12.7736 87.9638 12.7339 87.9272 12.6947C87.8881 12.6526 87.8484 12.6107 87.8081 12.5697C87.7795 12.5405 87.7504 12.5114 87.7212 12.4827C87.6808 12.4431 87.6396 12.4041 87.5981 12.3656C87.5645 12.3342 87.5309 12.3024 87.4966 12.2718C87.4532 12.2332 87.4091 12.195 87.3647 12.1575C87.3309 12.129 87.2966 12.1005 87.2622 12.0726C87.2224 12.0404 87.1816 12.0091 87.1411 11.9779C87.0981 11.9447 87.0551 11.9113 87.0112 11.8792C86.9755 11.8531 86.9391 11.8275 86.9028 11.8021C86.8561 11.7693 86.8089 11.7369 86.7612 11.7054C86.7238 11.6806 86.6859 11.6561 86.6479 11.6322C86.5996 11.6016 86.5507 11.5716 86.5015 11.5423C86.4676 11.5221 86.4332 11.5023 86.3989 11.4827C86.3422 11.4504 86.2848 11.4187 86.2271 11.388C86.1961 11.3716 86.1645 11.3561 86.1333 11.3402C86.0772 11.3116 86.0213 11.2822 85.9644 11.2552C85.9266 11.2374 85.8882 11.2206 85.8501 11.2034C85.7884 11.1757 85.7263 11.1482 85.6636 11.1224C85.6507 11.1171 85.6375 11.112 85.6245 11.1068C85.5443 11.0743 85.4632 11.0433 85.3813 11.014C85.3514 11.0033 85.3207 10.994 85.2905 10.9837C85.228 10.9624 85.1654 10.9406 85.1021 10.9212C85.0517 10.9058 85.0006 10.8925 84.9497 10.8782C84.9071 10.8663 84.8647 10.8532 84.8218 10.8421L84.7827 10.8323C84.7397 10.8216 84.6962 10.812 84.6528 10.8021C84.6 10.79 84.547 10.7777 84.4937 10.7669C84.4351 10.7551 84.376 10.7449 84.3169 10.7347C84.2721 10.7269 84.2273 10.7181 84.1821 10.7113C84.1145 10.701 84.0463 10.6939 83.978 10.6859C83.9406 10.6814 83.9033 10.675 83.8657 10.6712C83.7591 10.6605 83.6515 10.6533 83.5435 10.6478L83.2124 10.639Z" fill="white"/>
<path d="M138.973 9.98818C140.675 8.44084 142.936 7.49805 145.417 7.49794C150.709 7.49795 154.999 11.7881 155 17.08C155 17.1537 154.995 17.2273 154.994 17.3007V26.6601H151.852V16.9218H151.854C151.77 13.4381 148.921 10.6396 145.417 10.6395C141.914 10.6398 139.065 13.4382 138.981 16.9218H138.973V26.6601H135.832V7.49599H138.973V9.98818Z" fill="white"/>
<path d="M18.0713 2.59787C23.2784 2.59808 27.4998 7.58314 27.5 13.7326C27.5 13.8508 27.4943 13.9688 27.4912 14.0861C28.247 13.8555 29.0396 13.7327 29.8564 13.7326C35.0637 13.7326 39.285 18.7178 39.2852 24.8674C39.2852 31.0172 35.0638 36.0031 29.8564 36.0031C28.085 36.003 26.4285 35.4246 25.0127 34.4211C24.1376 41.6113 18.9017 47.1369 12.5713 47.1369C5.62833 47.1367 0 40.4898 0 32.2902C9.11789e-05 25.4103 3.96296 19.6241 9.33984 17.9397C8.891 16.6416 8.64258 15.2213 8.64258 13.7326C8.64273 7.58301 12.864 2.59787 18.0713 2.59787ZM18.6348 10.4992C15.2754 10.4993 12.552 13.7155 12.5518 17.6828C12.5518 18.6427 12.7118 19.5587 13.001 20.3957C9.53067 21.4814 6.97277 25.2157 6.97266 29.6555C6.97276 34.9454 10.6038 39.2334 15.083 39.2336C19.1675 39.2336 22.5453 35.668 23.1094 31.0285C24.0235 31.6772 25.0932 32.051 26.2373 32.051C29.5968 32.0509 32.3203 28.8349 32.3203 24.8674C32.3202 20.9 29.5968 17.6829 26.2373 17.6828C25.711 17.6828 25.2 17.7619 24.7129 17.9104C24.7149 17.835 24.7178 17.7588 24.7178 17.6828C24.7175 13.7156 21.994 10.4995 18.6348 10.4992Z" fill="white"/>
<rect x="45.5325" width="0.919853" height="28.5154" rx="0.459927" fill="#6A6A6A"/>
</svg>
