<svg width="20" height="20" viewBox="0 0 20 20" fill="none" xmlns="http://www.w3.org/2000/svg">
<path d="M10.5371 3.43401C10.1989 3.29983 9.80108 3.29983 9.46292 3.43401C9.16358 3.55276 9.00892 3.76188 8.93525 3.86841C8.85492 3.9845 8.77275 4.13357 8.69025 4.28313L2.82878 14.906C2.73653 15.0732 2.64718 15.2351 2.59002 15.3695C2.54062 15.4855 2.44048 15.736 2.54768 16.0055C2.66592 16.3028 2.95903 16.5355 3.33307 16.6291C3.67225 16.714 3.98733 16.6341 4.13329 16.5947C4.30223 16.5491 4.50578 16.4779 4.71596 16.4044L10 14.5563L15.2841 16.4044C15.4943 16.4779 15.6978 16.5491 15.8667 16.5947C16.0127 16.6341 16.3278 16.714 16.6669 16.6291C17.041 16.5355 17.3341 16.3028 17.4523 16.0055C17.5595 15.736 17.4594 15.4855 17.41 15.3695C17.3528 15.2351 17.2635 15.0732 17.1713 14.906L11.3098 4.28316C11.2273 4.13359 11.1451 3.98451 11.0648 3.86841C10.9911 3.76188 10.8364 3.55276 10.5371 3.43401Z" fill="#D3745E"/>
</svg>
