<svg width="64" height="64" viewBox="0 0 64 64" fill="none" xmlns="http://www.w3.org/2000/svg">
<rect width="64" height="64" rx="16" fill="#7628DB"/>
<g transform="translate(12, 13.5)">
<path d="M18.0713 0C23.2783 0.000175603 27.4998 4.07463 27.5 9.10059C27.5 9.19687 27.4943 9.2931 27.4912 9.38867C28.2471 9.20016 29.0405 9.10059 29.8574 9.10059C35.0644 9.10084 39.2859 13.1753 39.2861 18.2012C39.2861 23.2273 35.0645 27.3015 29.8574 27.3018C28.086 27.3018 26.4286 26.8299 25.0127 26.0098C24.1374 31.8861 18.9016 36.4023 12.5713 36.4023C5.62833 36.4022 0 30.9691 0 24.2676C0.000305554 18.6447 3.96307 13.9157 9.33984 12.5391C8.89098 11.4782 8.64258 10.3173 8.64258 9.10059C8.64281 4.07452 12.8641 0 18.0713 0ZM18.6348 6.45801C15.2754 6.45801 12.5521 9.08662 12.5518 12.3291C12.5518 13.1137 12.7116 13.8627 13.001 14.5469C9.53079 15.4342 6.97285 18.4857 6.97266 22.1143C6.97266 26.4378 10.6038 29.9432 15.083 29.9434C19.1673 29.9434 22.545 27.0288 23.1094 23.2373C24.0234 23.7674 25.0933 24.0723 26.2373 24.0723C29.5969 24.0723 32.3203 21.4439 32.3203 18.2012C32.3201 14.9586 29.5968 12.3301 26.2373 12.3301C25.7109 12.3301 25.2 12.3943 24.7129 12.5156C24.7149 12.4539 24.7178 12.3913 24.7178 12.3291C24.7174 9.08675 21.994 6.45822 18.6348 6.45801Z" fill="white"/>
</g>
</svg>
